<svg id="vector" xmlns="http://www.w3.org/2000/svg" width="108" height="108" viewBox="20 20 68 68" fill="none">
  <path fill="#f3f3f3" d="M37.92,38.67L38.23,38.77C41.27,39.79 44.17,41.1 47.08,42.44C48.82,43.25 50.57,44 52.47,44.33L52.84,44.4C55.97,44.72 58.79,43.5 61.57,42.19C63.48,41.28 65.43,40.44 67.4,39.67C70.91,38.28 74.59,37.14 78.31,36.52L78.5,36.49C79.35,36.34 80.2,36.3 81.06,36.29L81.36,36.29C82.64,36.29 83.73,36.63 84.7,37.51C85.73,38.64 85.8,40.1 85.8,41.57L85.8,41.96C85.8,42.32 85.8,42.68 85.8,43.04C85.8,44.18 85.81,45.32 85.81,46.46L85.81,48.31C85.81,50.06 85.81,51.8 85.81,53.55V54.12C85.81,55.65 85.81,57.17 85.81,58.7C85.82,60.26 85.82,61.83 85.82,63.4C85.82,64.28 85.82,65.16 85.82,66.04C85.82,66.79 85.82,67.54 85.82,68.29C85.82,68.67 85.82,69.05 85.82,69.43C85.83,71.77 85.77,73.85 84.1,75.66C82.58,77.21 80.36,77.69 78.38,78.37C77.71,78.6 77.05,78.83 76.38,79.06L76.18,79.13C74.46,79.72 72.74,80.34 71.03,80.95C70.51,81.14 69.99,81.32 69.48,81.51C67.71,82.14 65.95,82.77 64.18,83.4L62.03,84.17C61.3,84.44 60.57,84.7 59.84,84.96L59.52,85.07C57.32,85.85 57.32,85.85 56.33,85.98L56.04,86.03C54.67,86.21 53.32,86.19 51.95,86.01L51.71,85.98C50.08,85.74 48.48,85.03 46.93,84.48L46.58,84.36C45.01,83.81 43.45,83.24 41.9,82.67C40.1,82.01 38.29,81.38 36.48,80.74L35.81,80.51C35.13,80.27 34.44,80.02 33.76,79.78L33.5,79.69C33.16,79.57 32.82,79.45 32.49,79.33C31.53,78.98 30.57,78.65 29.61,78.32L29.04,78.12C28.68,78 28.32,77.88 27.96,77.76C25.65,76.98 23.91,76.01 22.76,73.73C22.35,72.74 22.28,71.67 22.29,70.61L22.28,70.21C22.28,69.86 22.28,69.5 22.28,69.14C22.28,68.75 22.28,68.37 22.28,67.98C22.28,67.23 22.28,66.47 22.28,65.72L22.28,63.07C22.28,61.4 22.28,59.73 22.28,58.06C22.28,56.54 22.28,55.02 22.28,53.49C22.27,51.93 22.27,50.36 22.27,48.79C22.27,47.91 22.27,47.03 22.27,46.15C22.27,45.4 22.27,44.66 22.27,43.91C22.27,43.53 22.27,43.15 22.27,42.76C22.26,38.83 22.26,38.83 23.47,37.48C26.69,34.27 34.29,37.43 37.92,38.67Z" id="path_0"/>
  <path fill="#f3f3f3" d="M38.4,32.42L38.69,32.56C42.51,34.4 46.17,36.86 49.26,39.8C49.45,39.98 49.64,40.16 49.83,40.34L50.26,40.73C50.47,40.93 50.68,41.13 50.89,41.32L51.22,41.63L51.38,41.78C51.67,42.05 51.94,42.35 52.18,42.67C51.56,42.65 51.01,42.52 50.43,42.32L50.2,42.24C49.48,41.99 48.79,41.68 48.1,41.35C47.74,41.17 47.38,41 47.02,40.83L46.79,40.73C41.16,38.07 35.11,35.78 28.93,34.96C28.81,34.94 28.69,34.92 28.56,34.91C28.18,34.86 27.8,34.85 27.42,34.85L27.21,34.85L26.58,34.85L26.15,34.85C25.8,34.86 25.45,34.86 25.1,34.86C25.05,33.41 25.59,32.25 26.53,31.18C29.66,28.11 35.15,30.86 38.4,32.42ZM80.22,30.27L80.47,30.4C81.63,31.05 82.48,32.13 82.86,33.44C82.91,33.73 82.91,34 82.91,34.3L82.91,34.62L82.9,34.86L82.65,34.85C75.08,34.69 67.69,37.74 60.91,40.92L60.7,41.02C60.36,41.18 60.02,41.33 59.69,41.49C58.5,42.06 57.32,42.51 56.01,42.67C56.4,42.2 56.81,41.74 57.24,41.3L57.42,41.12C57.77,40.77 58.12,40.43 58.5,40.11C58.7,39.93 58.89,39.75 59.08,39.56C59.75,38.93 60.45,38.35 61.18,37.79L61.38,37.63C65.25,34.63 74.97,27.43 80.22,30.27ZM39.43,23.78C40.18,24.23 40.87,24.74 41.56,25.29L41.82,25.49C42.05,25.68 42.28,25.87 42.52,26.07L42.8,26.31C44.36,27.63 45.89,29.07 47.21,30.66L47.46,30.96C50.59,34.61 50.59,34.61 50.67,35.8C50.65,36.13 50.65,36.13 50.46,36.32C49.8,36.38 49.34,36.11 48.84,35.71L48.63,35.55C48.41,35.39 48.19,35.22 47.97,35.05C47.64,34.8 47.31,34.56 46.97,34.31C45.45,33.19 43.85,32.12 42.22,31.16C42.01,31.03 41.79,30.9 41.58,30.78C40.16,29.93 38.72,29.13 37.2,28.5L37.01,28.42C36.71,28.29 36.4,28.17 36.09,28.05C35.17,27.67 34.4,27.31 33.98,26.35C33.77,25.62 33.79,24.87 34.1,24.17C34.49,23.48 35.02,23.09 35.75,22.82C37.12,22.46 38.28,23.09 39.43,23.78ZM72.85,23.04C73.48,23.5 74.02,24.01 74.19,24.8C74.29,25.57 74.21,26.19 73.81,26.85C73.36,27.43 72.86,27.71 72.2,27.97L71.66,28.19L71.39,28.31C69.12,29.25 67,30.44 64.91,31.73L64.62,31.91C63.69,32.49 62.78,33.07 61.9,33.73C61.49,34.04 61.06,34.33 60.64,34.62C60.02,35.05 59.41,35.5 58.82,35.96C58.41,36.26 58.15,36.37 57.64,36.32C57.45,36.13 57.45,36.13 57.39,35.85C57.45,34.43 59.28,32.66 60.13,31.64L60.26,31.47C61.25,30.27 61.25,30.27 61.79,29.74C61.96,29.57 62.12,29.39 62.27,29.2C62.79,28.6 63.34,28.05 63.94,27.52C64.08,27.39 64.23,27.26 64.37,27.12C65.14,26.39 65.97,25.74 66.82,25.09L67,24.96C70.91,21.97 70.91,21.97 72.85,23.04Z" id="path_1"/>
</svg>
